<svg width="20" height="25" fill="none" xmlns="http://www.w3.org/2000/svg"><path d="M18.893 8.682c-.135.108-2.525 1.493-2.525 4.573 0 3.562 3.041 4.822 3.132 4.853-.014.077-.483 1.726-1.603 3.406-1 1.479-2.042 2.955-3.63 2.955-1.587 0-1.995-.948-3.827-.948-1.785 0-2.42.979-3.872.979s-2.465-1.368-3.63-3.048C1.59 19.479.5 16.414.5 13.504c0-4.666 2.95-7.14 5.853-7.14 1.543 0 2.829 1.041 3.797 1.041.922 0 2.36-1.104 4.115-1.104.665 0 3.055.063 4.628 2.381Zm-5.461-4.356c.726-.886 1.24-2.115 1.24-3.344 0-.17-.015-.343-.045-.482-1.181.046-2.586.809-3.433 1.82-.665.777-1.286 2.006-1.286 3.252 0 .187.03.374.044.434.075.015.196.031.318.031 1.06 0 2.392-.73 3.162-1.711Z" fill="#fff"/></svg>
