<svg width="1076" height="631" viewBox="0 0 1076 631" fill="none" xmlns="http://www.w3.org/2000/svg">
<path fill-rule="evenodd" clip-rule="evenodd" d="M89.0959 314.97V276.973H127.666V314.97H89.0959ZM88.0959 314.97V276.973H50.0254V314.97H88.0959ZM127.666 275.973H89.0959V237.477H127.666V275.973ZM88.0959 275.973V237.477H50.0254V275.973H88.0959ZM127.666 236.477H89.0959V197.981H127.666V236.477ZM88.0959 236.477V197.981H50.0254V236.477H88.0959ZM127.666 196.981H89.0959V158.485H127.666V196.981ZM88.0959 196.981V158.485H50.0254V196.981H88.0959ZM127.666 157.485H89.0959V118.989H127.666V157.485ZM88.0959 157.485V118.989H50.0254V157.485H88.0959ZM127.666 117.989H89.0959V79.4924H127.666V117.989ZM88.0959 117.989V79.4924H50.0254V117.989H88.0959ZM127.666 78.4924H89.0959V39.9962H127.666V78.4924ZM88.0959 78.4924V39.9962H50.0254V78.4924H88.0959ZM127.666 38.9962H89.0959V1H127.666V38.9962ZM88.0959 38.9962V1H50.0254V38.9962H88.0959ZM88.5959 0H88.0959H50.0254H49.0254V0.5V1V38.9962V39.4962V39.9962V78.4924V78.9924V79.4924V117.989V118.489V118.989V157.485V157.985V158.485V196.981V197.481V197.981V236.477V236.977V237.477V275.973V276.473V276.973V314.97V315V315.47V315.5V315.97V316V353.996V354.496V354.996V393.492V393.992V394.492V432.989V433.489V433.989V472.485V472.985V473.485V511.981V512.481V512.981V551.477V551.977V552.477V590.973V591.473V591.973V629.969V630.469V630.969H50.0254H88.0959H88.5959H89.0959H127.666H128.166H128.666H167.237H167.737H168.237H206.808H207.308H207.808H246.378H246.878H247.378H285.949H286.449H286.949H325.519H326.019H326.519H365.09H365.59H366.09H404.66H405.16H405.66H444.231H444.731H445.231H483.801H484.301H484.801H523.372H523.872H524.372H562.942H563.442H563.942H602.513H603.013H603.513H642.083H642.583H643.083H681.654H682.154H682.654H721.224H721.724H722.224H760.795H761.295H761.795H800.365H800.865H801.365H839.936H840.436H840.936H879.507H880.007H880.507H919.077H919.577H920.077H958.648H959.148H959.648H998.218H998.718H999.218H1037.29H1038.29V630.469V629.969V591.973V591.473V590.973V552.477V551.977V551.477V512.981V512.481V511.981V473.485V472.985V472.485V433.989V433.489V432.989V394.492V393.992V393.492V354.996V354.496V353.996V316V315.97V315.5V315.47V315V314.97V276.973V276.473V275.973V237.477V236.977V236.477V197.981V197.481V196.981V158.485V157.985V157.485V118.989V118.489V117.989V79.4924V78.9924V78.4924V39.9962V39.4962V38.9962V1V0.5V0H1037.29H999.218H998.718H998.218H959.648H959.148H958.648H920.077H919.577H919.077H880.507H880.007H879.507H840.936H840.436H839.936H801.365H800.865H800.365H761.795H761.295H760.795H722.224H721.724H721.224H682.654H682.154H681.654H643.083H642.583H642.083H603.513H603.013H602.513H563.942H563.442H562.942H524.372H523.872H523.372H484.801H484.301H483.801H445.231H444.731H444.231H405.66H405.16H404.66H366.09H365.59H365.09H326.519H326.019H325.519H286.949H286.449H285.949H247.378H246.878H246.378H207.808H207.308H206.808H168.237H167.737H167.237H128.666H128.166H127.666H89.0959H88.5959ZM167.237 314.97H128.666V276.973H167.237V314.97ZM167.237 275.973H128.666V237.477H167.237V275.973ZM167.237 236.477H128.666V197.981H167.237V236.477ZM167.237 196.981H128.666V158.485H167.237V196.981ZM167.237 157.485H128.666V118.989H167.237V157.485ZM167.237 117.989H128.666V79.4924H167.237V117.989ZM167.237 78.4924H128.666V39.9962H167.237V78.4924ZM167.237 38.9962H128.666V1H167.237V38.9962ZM168.237 38.9962V1H206.808V38.9962H168.237ZM207.808 38.9962V1H246.378V38.9962H207.808ZM247.378 38.9962V1H285.949V38.9962H247.378ZM286.949 38.9962V1H325.519V38.9962H286.949ZM326.519 38.9962V1H365.09V38.9962H326.519ZM366.09 38.9962V1H404.66V38.9962H366.09ZM405.66 38.9962V1H444.231V38.9962H405.66ZM445.231 38.9962V1H483.801V38.9962H445.231ZM484.801 38.9962V1H523.372V38.9962H484.801ZM524.372 38.9962V1H562.942V38.9962H524.372ZM563.942 38.9962V1H602.513V38.9962H563.942ZM603.513 38.9962V1H642.083V38.9962H603.513ZM643.083 38.9962V1H681.654V38.9962H643.083ZM682.654 38.9962V1H721.224V38.9962H682.654ZM722.224 38.9962V1H760.795V38.9962H722.224ZM761.795 38.9962V1H800.365V38.9962H761.795ZM801.365 38.9962V1H839.936V38.9962H801.365ZM840.936 38.9962V1H879.507V38.9962H840.936ZM880.507 38.9962V1H919.077V38.9962H880.507ZM920.077 38.9962V1H958.648V38.9962H920.077ZM959.648 38.9962V1H998.218V38.9962H959.648ZM999.218 38.9962V1H1037.29V38.9962H999.218ZM999.218 39.9962H1037.29V78.4924H999.218V39.9962ZM999.218 79.4924H1037.29V117.989H999.218V79.4924ZM999.218 118.989H1037.29V157.485H999.218V118.989ZM999.218 158.485H1037.29V196.981H999.218V158.485ZM999.218 197.981H1037.29V236.477H999.218V197.981ZM999.218 237.477H1037.29V275.973H999.218V237.477ZM999.218 276.973H1037.29V314.97H999.218V276.973ZM998.218 276.973V314.97H959.648V276.973H998.218ZM958.648 276.973V314.97H920.077V276.973H958.648ZM919.077 276.973V314.97H880.507V276.973H919.077ZM879.507 276.973V314.97H840.936V276.973H879.507ZM839.936 276.973V314.97H801.365V276.973H839.936ZM800.365 276.973V314.97H761.795V276.973H800.365ZM760.795 276.973V314.97H722.224V276.973H760.795ZM721.224 276.973V314.97H682.654V276.973H721.224ZM681.654 276.973V314.97H643.083V276.973H681.654ZM642.083 276.973V314.97H603.513V276.973H642.083ZM602.513 276.973V314.97H563.942V276.973H602.513ZM562.942 276.973V314.97H524.372V276.973H562.942ZM523.372 276.973V314.97H484.801V276.973H523.372ZM483.801 276.973V314.97H445.231V276.973H483.801ZM444.231 276.973V314.97H405.66V276.973H444.231ZM404.66 276.973V314.97H366.09V276.973H404.66ZM365.09 276.973V314.97H326.519V276.973H365.09ZM325.519 276.973V314.97H286.949V276.973H325.519ZM285.949 276.973V314.97H247.378V276.973H285.949ZM246.378 276.973V314.97H207.808V276.973H246.378ZM206.808 276.973V314.97H168.237V276.973H206.808ZM206.808 275.973H168.237V237.477H206.808V275.973ZM206.808 236.477H168.237V197.981H206.808V236.477ZM206.808 196.981H168.237V158.485H206.808V196.981ZM206.808 157.485H168.237V118.989H206.808V157.485ZM206.808 117.989H168.237V79.4924H206.808V117.989ZM206.808 78.4924H168.237V39.9962H206.808V78.4924ZM207.808 78.4924V39.9962H246.378V78.4924H207.808ZM247.378 78.4924V39.9962H285.949V78.4924H247.378ZM286.949 78.4924V39.9962H325.519V78.4924H286.949ZM326.519 78.4924V39.9962H365.09V78.4924H326.519ZM366.09 78.4924V39.9962H404.66V78.4924H366.09ZM405.66 78.4924V39.9962H444.231V78.4924H405.66ZM445.231 78.4924V39.9962H483.801V78.4924H445.231ZM484.801 78.4924V39.9962H523.372V78.4924H484.801ZM524.372 78.4924V39.9962H562.942V78.4924H524.372ZM563.942 78.4924V39.9962H602.513V78.4924H563.942ZM603.513 78.4924V39.9962H642.083V78.4924H603.513ZM643.083 78.4924V39.9962H681.654V78.4924H643.083ZM682.654 78.4924V39.9962H721.224V78.4924H682.654ZM722.224 78.4924V39.9962H760.795V78.4924H722.224ZM761.795 78.4924V39.9962H800.365V78.4924H761.795ZM801.365 78.4924V39.9962H839.936V78.4924H801.365ZM840.936 78.4924V39.9962H879.507V78.4924H840.936ZM880.507 78.4924V39.9962H919.077V78.4924H880.507ZM920.077 78.4924V39.9962H958.648V78.4924H920.077ZM959.648 78.4924V39.9962H998.218V78.4924H959.648ZM959.648 79.4924H998.218V117.989H959.648V79.4924ZM959.648 118.989H998.218V157.485H959.648V118.989ZM959.648 158.485H998.218V196.981H959.648V158.485ZM959.648 197.981H998.218V236.477H959.648V197.981ZM959.648 237.477H998.218V275.973H959.648V237.477ZM958.648 237.477V275.973H920.077V237.477H958.648ZM919.077 237.477V275.973H880.507V237.477H919.077ZM879.507 237.477V275.973H840.936V237.477H879.507ZM839.936 237.477V275.973H801.365V237.477H839.936ZM800.365 237.477V275.973H761.795V237.477H800.365ZM760.795 237.477V275.973H722.224V237.477H760.795ZM721.224 237.477V275.973H682.654V237.477H721.224ZM681.654 237.477V275.973H643.083V237.477H681.654ZM642.083 237.477V275.973H603.513V237.477H642.083ZM602.513 237.477V275.973H563.942V237.477H602.513ZM562.942 237.477V275.973H524.372V237.477H562.942ZM523.372 237.477V275.973H484.801V237.477H523.372ZM483.801 237.477V275.973H445.231V237.477H483.801ZM444.231 237.477V275.973H405.66V237.477H444.231ZM404.66 237.477V275.973H366.09V237.477H404.66ZM365.09 237.477V275.973H326.519V237.477H365.09ZM325.519 237.477V275.973H286.949V237.477H325.519ZM285.949 237.477V275.973H247.378V237.477H285.949ZM246.378 237.477V275.973H207.808V237.477H246.378ZM246.378 236.477H207.808V197.981H246.378V236.477ZM246.378 196.981H207.808V158.485H246.378V196.981ZM246.378 157.485H207.808V118.989H246.378V157.485ZM246.378 117.989H207.808V79.4924H246.378V117.989ZM247.378 117.989V79.4924H285.949V117.989H247.378ZM286.949 117.989V79.4924H325.519V117.989H286.949ZM326.519 117.989V79.4924H365.09V117.989H326.519ZM366.09 117.989V79.4924H404.66V117.989H366.09ZM405.66 117.989V79.4924H444.231V117.989H405.66ZM445.231 117.989V79.4924H483.801V117.989H445.231ZM484.801 117.989V79.4924H523.372V117.989H484.801ZM524.372 117.989V79.4924H562.942V117.989H524.372ZM563.942 117.989V79.4924H602.513V117.989H563.942ZM603.513 117.989V79.4924H642.083V117.989H603.513ZM643.083 117.989V79.4924H681.654V117.989H643.083ZM682.654 117.989V79.4924H721.224V117.989H682.654ZM722.224 117.989V79.4924H760.795V117.989H722.224ZM761.795 117.989V79.4924H800.365V117.989H761.795ZM801.365 117.989V79.4924H839.936V117.989H801.365ZM840.936 117.989V79.4924H879.507V117.989H840.936ZM880.507 117.989V79.4924H919.077V117.989H880.507ZM920.077 117.989V79.4924H958.648V117.989H920.077ZM920.077 118.989H958.648V157.485H920.077V118.989ZM920.077 158.485H958.648V196.981H920.077V158.485ZM920.077 197.981H958.648V236.477H920.077V197.981ZM919.077 197.981V236.477H880.507V197.981H919.077ZM879.507 197.981V236.477H840.936V197.981H879.507ZM839.936 197.981V236.477H801.365V197.981H839.936ZM800.365 197.981V236.477H761.795V197.981H800.365ZM760.795 197.981V236.477H722.224V197.981H760.795ZM721.224 197.981V236.477H682.654V197.981H721.224ZM681.654 197.981V236.477H643.083V197.981H681.654ZM642.083 197.981V236.477H603.513V197.981H642.083ZM602.513 197.981V236.477H563.942V197.981H602.513ZM562.942 197.981V236.477H524.372V197.981H562.942ZM523.372 197.981V236.477H484.801V197.981H523.372ZM483.801 197.981V236.477H445.231V197.981H483.801ZM444.231 197.981V236.477H405.66V197.981H444.231ZM404.66 197.981V236.477H366.09V197.981H404.66ZM365.09 197.981V236.477H326.519V197.981H365.09ZM325.519 197.981V236.477H286.949V197.981H325.519ZM285.949 197.981V236.477H247.378V197.981H285.949ZM285.949 196.981H247.378V158.485H285.949V196.981ZM285.949 157.485H247.378V118.989H285.949V157.485ZM286.949 157.485V118.989H325.519V157.485H286.949ZM326.519 157.485V118.989H365.09V157.485H326.519ZM366.09 157.485V118.989H404.66V157.485H366.09ZM405.66 157.485V118.989H444.231V157.485H405.66ZM445.231 157.485V118.989H483.801V157.485H445.231ZM484.801 157.485V118.989H523.372V157.485H484.801ZM524.372 157.485V118.989H562.942V157.485H524.372ZM563.942 157.485V118.989H602.513V157.485H563.942ZM603.513 157.485V118.989H642.083V157.485H603.513ZM643.083 157.485V118.989H681.654V157.485H643.083ZM682.654 157.485V118.989H721.224V157.485H682.654ZM722.224 157.485V118.989H760.795V157.485H722.224ZM761.795 157.485V118.989H800.365V157.485H761.795ZM801.365 157.485V118.989H839.936V157.485H801.365ZM840.936 157.485V118.989H879.507V157.485H840.936ZM880.507 157.485V118.989H919.077V157.485H880.507ZM880.507 158.485H919.077V196.981H880.507V158.485ZM879.507 158.485V196.981H840.936V158.485H879.507ZM839.936 158.485V196.981H801.365V158.485H839.936ZM800.365 158.485V196.981H761.795V158.485H800.365ZM760.795 158.485V196.981H722.224V158.485H760.795ZM721.224 158.485V196.981H682.654V158.485H721.224ZM681.654 158.485V196.981H643.083V158.485H681.654ZM642.083 158.485V196.981H603.513V158.485H642.083ZM602.513 158.485V196.981H563.942V158.485H602.513ZM562.942 158.485V196.981H524.372V158.485H562.942ZM523.372 158.485V196.981H484.801V158.485H523.372ZM483.801 158.485V196.981H445.231V158.485H483.801ZM444.231 158.485V196.981H405.66V158.485H444.231ZM404.66 158.485V196.981H366.09V158.485H404.66ZM365.09 158.485V196.981H326.519V158.485H365.09ZM325.519 158.485V196.981H286.949V158.485H325.519ZM89.0959 629.969V591.973H127.666V629.969H89.0959ZM88.0959 629.969V591.973H50.0254V629.969H88.0959ZM127.666 590.973H89.0959V552.477H127.666V590.973ZM88.0959 590.973V552.477H50.0254V590.973H88.0959ZM127.666 551.477H89.0959V512.981H127.666V551.477ZM88.0959 551.477V512.981H50.0254V551.477H88.0959ZM127.666 511.981H89.0959V473.485H127.666V511.981ZM88.0959 511.981V473.485H50.0254V511.981H88.0959ZM127.666 472.485H89.0959V433.989H127.666V472.485ZM88.0959 472.485V433.989H50.0254V472.485H88.0959ZM127.666 432.989H89.0959V394.492H127.666V432.989ZM88.0959 432.989V394.492H50.0254V432.989H88.0959ZM127.666 393.492H89.0959V354.996H127.666V393.492ZM88.0959 393.492V354.996H50.0254V393.492H88.0959ZM127.666 353.996H89.0959V316H127.666V353.996ZM88.0959 353.996V316H50.0254V353.996H88.0959ZM167.237 629.969H128.666V591.973H167.237V629.969ZM167.237 590.973H128.666V552.477H167.237V590.973ZM167.237 551.477H128.666V512.981H167.237V551.477ZM167.237 511.981H128.666V473.485H167.237V511.981ZM167.237 472.485H128.666V433.989H167.237V472.485ZM167.237 432.989H128.666V394.492H167.237V432.989ZM167.237 393.492H128.666V354.996H167.237V393.492ZM167.237 353.996H128.666V316H167.237V353.996ZM168.237 353.996V316H206.808V353.996H168.237ZM207.808 353.996V316H246.378V353.996H207.808ZM247.378 353.996V316H285.949V353.996H247.378ZM286.949 353.996V316H325.519V353.996H286.949ZM326.519 353.996V316H365.09V353.996H326.519ZM366.09 353.996V316H404.66V353.996H366.09ZM405.66 353.996V316H444.231V353.996H405.66ZM445.231 353.996V316H483.801V353.996H445.231ZM484.801 353.996V316H523.372V353.996H484.801ZM524.372 353.996V316H562.942V353.996H524.372ZM563.942 353.996V316H602.513V353.996H563.942ZM603.513 353.996V316H642.083V353.996H603.513ZM643.083 353.996V316H681.654V353.996H643.083ZM682.654 353.996V316H721.224V353.996H682.654ZM722.224 353.996V316H760.795V353.996H722.224ZM761.795 353.996V316H800.365V353.996H761.795ZM801.365 353.996V316H839.936V353.996H801.365ZM840.936 353.996V316H879.507V353.996H840.936ZM880.507 353.996V316H919.077V353.996H880.507ZM920.077 353.996V316H958.648V353.996H920.077ZM959.648 353.996V316H998.218V353.996H959.648ZM999.218 353.996V316H1037.29V353.996H999.218ZM999.218 354.996H1037.29V393.492H999.218V354.996ZM999.218 394.492H1037.29V432.989H999.218V394.492ZM999.218 433.989H1037.29V472.485H999.218V433.989ZM999.218 473.485H1037.29V511.981H999.218V473.485ZM999.218 512.981H1037.29V551.477H999.218V512.981ZM999.218 552.477H1037.29V590.973H999.218V552.477ZM999.218 591.973H1037.29V629.969H999.218V591.973ZM998.218 591.973V629.969H959.648V591.973H998.218ZM958.648 591.973V629.969H920.077V591.973H958.648ZM919.077 591.973V629.969H880.507V591.973H919.077ZM879.507 591.973V629.969H840.936V591.973H879.507ZM839.936 591.973V629.969H801.365V591.973H839.936ZM800.365 591.973V629.969H761.795V591.973H800.365ZM760.795 591.973V629.969H722.224V591.973H760.795ZM721.224 591.973V629.969H682.654V591.973H721.224ZM681.654 591.973V629.969H643.083V591.973H681.654ZM642.083 591.973V629.969H603.513V591.973H642.083ZM602.513 591.973V629.969H563.942V591.973H602.513ZM562.942 591.973V629.969H524.372V591.973H562.942ZM523.372 591.973V629.969H484.801V591.973H523.372ZM483.801 591.973V629.969H445.231V591.973H483.801ZM444.231 591.973V629.969H405.66V591.973H444.231ZM404.66 591.973V629.969H366.09V591.973H404.66ZM365.09 591.973V629.969H326.519V591.973H365.09ZM325.519 591.973V629.969H286.949V591.973H325.519ZM285.949 591.973V629.969H247.378V591.973H285.949ZM246.378 591.973V629.969H207.808V591.973H246.378ZM206.808 591.973V629.969H168.237V591.973H206.808ZM206.808 590.973H168.237V552.477H206.808V590.973ZM206.808 551.477H168.237V512.981H206.808V551.477ZM206.808 511.981H168.237V473.485H206.808V511.981ZM206.808 472.485H168.237V433.989H206.808V472.485ZM206.808 432.989H168.237V394.492H206.808V432.989ZM206.808 393.492H168.237V354.996H206.808V393.492ZM207.808 393.492V354.996H246.378V393.492H207.808ZM247.378 393.492V354.996H285.949V393.492H247.378ZM286.949 393.492V354.996H325.519V393.492H286.949ZM326.519 393.492V354.996H365.09V393.492H326.519ZM366.09 393.492V354.996H404.66V393.492H366.09ZM405.66 393.492V354.996H444.231V393.492H405.66ZM445.231 393.492V354.996H483.801V393.492H445.231ZM484.801 393.492V354.996H523.372V393.492H484.801ZM524.372 393.492V354.996H562.942V393.492H524.372ZM563.942 393.492V354.996H602.513V393.492H563.942ZM603.513 393.492V354.996H642.083V393.492H603.513ZM643.083 393.492V354.996H681.654V393.492H643.083ZM682.654 393.492V354.996H721.224V393.492H682.654ZM722.224 393.492V354.996H760.795V393.492H722.224ZM761.795 393.492V354.996H800.365V393.492H761.795ZM801.365 393.492V354.996H839.936V393.492H801.365ZM840.936 393.492V354.996H879.507V393.492H840.936ZM880.507 393.492V354.996H919.077V393.492H880.507ZM920.077 393.492V354.996H958.648V393.492H920.077ZM959.648 393.492V354.996H998.218V393.492H959.648ZM959.648 394.492H998.218V432.989H959.648V394.492ZM959.648 433.989H998.218V472.485H959.648V433.989ZM959.648 473.485H998.218V511.981H959.648V473.485ZM959.648 512.981H998.218V551.477H959.648V512.981ZM959.648 552.477H998.218V590.973H959.648V552.477ZM958.648 552.477V590.973H920.077V552.477H958.648ZM919.077 552.477V590.973H880.507V552.477H919.077ZM879.507 552.477V590.973H840.936V552.477H879.507ZM839.936 552.477V590.973H801.365V552.477H839.936ZM800.365 552.477V590.973H761.795V552.477H800.365ZM760.795 552.477V590.973H722.224V552.477H760.795ZM721.224 552.477V590.973H682.654V552.477H721.224ZM681.654 552.477V590.973H643.083V552.477H681.654ZM642.083 552.477V590.973H603.513V552.477H642.083ZM602.513 552.477V590.973H563.942V552.477H602.513ZM562.942 552.477V590.973H524.372V552.477H562.942ZM523.372 552.477V590.973H484.801V552.477H523.372ZM483.801 552.477V590.973H445.231V552.477H483.801ZM444.231 552.477V590.973H405.66V552.477H444.231ZM404.66 552.477V590.973H366.09V552.477H404.66ZM365.09 552.477V590.973H326.519V552.477H365.09ZM325.519 552.477V590.973H286.949V552.477H325.519ZM285.949 552.477V590.973H247.378V552.477H285.949ZM246.378 552.477V590.973H207.808V552.477H246.378ZM246.378 551.477H207.808V512.981H246.378V551.477ZM246.378 511.981H207.808V473.485H246.378V511.981ZM246.378 472.485H207.808V433.989H246.378V472.485ZM246.378 432.989H207.808V394.492H246.378V432.989ZM247.378 432.989V394.492H285.949V432.989H247.378ZM286.949 432.989V394.492H325.519V432.989H286.949ZM326.519 432.989V394.492H365.09V432.989H326.519ZM366.09 432.989V394.492H404.66V432.989H366.09ZM405.66 432.989V394.492H444.231V432.989H405.66ZM445.231 432.989V394.492H483.801V432.989H445.231ZM484.801 432.989V394.492H523.372V432.989H484.801ZM524.372 432.989V394.492H562.942V432.989H524.372ZM563.942 432.989V394.492H602.513V432.989H563.942ZM603.513 432.989V394.492H642.083V432.989H603.513ZM643.083 432.989V394.492H681.654V432.989H643.083ZM682.654 432.989V394.492H721.224V432.989H682.654ZM722.224 432.989V394.492H760.795V432.989H722.224ZM761.795 432.989V394.492H800.365V432.989H761.795ZM801.365 432.989V394.492H839.936V432.989H801.365ZM840.936 432.989V394.492H879.507V432.989H840.936ZM880.507 432.989V394.492H919.077V432.989H880.507ZM920.077 432.989V394.492H958.648V432.989H920.077ZM920.077 433.989H958.648V472.485H920.077V433.989ZM920.077 473.485H958.648V511.981H920.077V473.485ZM920.077 512.981H958.648V551.477H920.077V512.981ZM919.077 512.981V551.477H880.507V512.981H919.077ZM879.507 512.981V551.477H840.936V512.981H879.507ZM839.936 512.981V551.477H801.365V512.981H839.936ZM800.365 512.981V551.477H761.795V512.981H800.365ZM760.795 512.981V551.477H722.224V512.981H760.795ZM721.224 512.981V551.477H682.654V512.981H721.224ZM681.654 512.981V551.477H643.083V512.981H681.654ZM642.083 512.981V551.477H603.513V512.981H642.083ZM602.513 512.981V551.477H563.942V512.981H602.513ZM562.942 512.981V551.477H524.372V512.981H562.942ZM523.372 512.981V551.477H484.801V512.981H523.372ZM483.801 512.981V551.477H445.231V512.981H483.801ZM444.231 512.981V551.477H405.66V512.981H444.231ZM404.66 512.981V551.477H366.09V512.981H404.66ZM365.09 512.981V551.477H326.519V512.981H365.09ZM325.519 512.981V551.477H286.949V512.981H325.519ZM285.949 512.981V551.477H247.378V512.981H285.949ZM285.949 511.981H247.378V473.485H285.949V511.981ZM285.949 472.485H247.378V433.989H285.949V472.485ZM286.949 472.485V433.989H325.519V472.485H286.949ZM326.519 472.485V433.989H365.09V472.485H326.519ZM366.09 472.485V433.989H404.66V472.485H366.09ZM405.66 472.485V433.989H444.231V472.485H405.66ZM445.231 472.485V433.989H483.801V472.485H445.231ZM484.801 472.485V433.989H523.372V472.485H484.801ZM524.372 472.485V433.989H562.942V472.485H524.372ZM563.942 472.485V433.989H602.513V472.485H563.942ZM603.513 472.485V433.989H642.083V472.485H603.513ZM643.083 472.485V433.989H681.654V472.485H643.083ZM682.654 472.485V433.989H721.224V472.485H682.654ZM722.224 472.485V433.989H760.795V472.485H722.224ZM761.795 472.485V433.989H800.365V472.485H761.795ZM801.365 472.485V433.989H839.936V472.485H801.365ZM840.936 472.485V433.989H879.507V472.485H840.936ZM880.507 472.485V433.989H919.077V472.485H880.507ZM880.507 473.485H919.077V511.981H880.507V473.485ZM879.507 473.485V511.981H840.936V473.485H879.507ZM839.936 473.485V511.981H801.365V473.485H839.936ZM800.365 473.485V511.981H761.795V473.485H800.365ZM760.795 473.485V511.981H722.224V473.485H760.795ZM721.224 473.485V511.981H682.654V473.485H721.224ZM681.654 473.485V511.981H643.083V473.485H681.654ZM642.083 473.485V511.981H603.513V473.485H642.083ZM602.513 473.485V511.981H563.942V473.485H602.513ZM562.942 473.485V511.981H524.372V473.485H562.942ZM523.372 473.485V511.981H484.801V473.485H523.372ZM483.801 473.485V511.981H445.231V473.485H483.801ZM444.231 473.485V511.981H405.66V473.485H444.231ZM404.66 473.485V511.981H366.09V473.485H404.66ZM365.09 473.485V511.981H326.519V473.485H365.09ZM325.519 473.485V511.981H286.949V473.485H325.519Z" fill="url(#paint0_radial)"/>
<defs>
<radialGradient id="paint0_radial" cx="0" cy="0" r="1" gradientUnits="userSpaceOnUse" gradientTransform="translate(555.5 313.342) rotate(89.9808) scale(1074.35 514.258)">
<stop stop-color="#313145"/>
<stop offset="1" stop-color="#26203B" stop-opacity="0"/>
</radialGradient>
</defs>
</svg>
