<svg width="352" height="196" viewBox="0 0 352 196" fill="none" xmlns="http://www.w3.org/2000/svg">
<path opacity="0.5" fill-rule="evenodd" clip-rule="evenodd" d="M-67.74 83.1185V63.8195H-47.98V83.1185H-67.74ZM-68.74 83.1185V63.8195H-88V83.1185H-68.74ZM-47.98 62.8195H-67.74V43.0205H-47.98V62.8195ZM-68.74 62.8195V43.0205H-88V62.8195H-68.74ZM-47.98 42.0205H-67.74V22.2215H-47.98V42.0205ZM-68.74 42.0205V22.2215H-88V42.0205H-68.74ZM-47.98 21.2215H-67.74V1.42254H-47.98V21.2215ZM-68.74 21.2215V1.42254H-88V21.2215H-68.74ZM-47.98 0.422539H-67.74V-19.3765H-47.98V0.422539ZM-68.74 0.422539V-19.3765H-88V0.422539H-68.74ZM-47.98 -20.3765H-67.74V-40.1755H-47.98V-20.3765ZM-68.74 -20.3765V-40.1755H-88V-20.3765H-68.74ZM-47.98 -41.1755H-67.74V-60.9745H-47.98V-41.1755ZM-68.74 -41.1755V-60.9745H-88V-41.1755H-68.74ZM-47.98 -61.9745H-67.74V-81.2735H-47.98V-61.9745ZM-68.74 -61.9745V-81.2735H-88V-61.9745H-68.74ZM-68.24 -82.2735H-68.74H-88H-89V-81.7735V-81.2735V-61.9745V-61.4745V-60.9745V-41.1755V-40.6755V-40.1755V-20.3765V-19.8765V-19.3765V0.422539V0.922539V1.42254V21.2215V21.7215V22.2215V42.0205V42.5205V43.0205V62.8195V63.3195V63.8195V83.1185V83.608V83.6185V84.108V84.1185V84.608V103.907V104.407V104.907V124.706V125.206V125.706V145.505V146.005V146.505V166.304V166.804V167.304V187.103V187.603V188.103V207.902V208.402V208.902V228.701V229.201V229.701V249V249.5V250H-88H-68.74H-68.24H-67.74H-47.98H-47.48H-46.98H-27.22H-26.72H-26.22H-6.45999H-5.95999H-5.45999H14.3H14.8H15.3H35.06H35.56H36.06H55.82H56.32H56.82H76.58H77.08H77.58H97.34H97.84H98.34H118.1H118.6H119.1H138.86H139.36H139.86H159.62H160.12H160.62H180.38H180.88H181.38H201.14H201.64H202.14H221.9H222.4H222.9H242.66H243.16H243.66H263.42H263.92H264.42H284.18H284.68H285.18H304.94H305.44H305.94H325.7H326.2H326.7H346.46H346.96H347.46H367.22H367.72H368.22H387.98H388.48H388.98H408.74H409.24H409.74H429H430V249.5V249V229.701V229.201V228.701V208.902V208.402V207.902V188.103V187.603V187.103V167.304V166.804V166.304V146.505V146.005V145.505V125.706V125.206V124.706V104.907V104.407V103.907V84.608L430 84.1185L430 84.108L430 83.6185L430 83.608L430 83.1185V63.8195V63.3195V62.8195V43.0205V42.5205V42.0205V22.2215V21.7215V21.2215V1.42254V0.922539V0.422539V-19.3765V-19.8765V-20.3765V-40.1755V-40.6755V-41.1755V-60.9745V-61.4745V-61.9745V-81.2735V-81.7735V-82.2735H429H409.74H409.24H408.74H388.98H388.48H387.98H368.22H367.72H367.22H347.46H346.96H346.46H326.7H326.2H325.7H305.94H305.44H304.94H285.18H284.68H284.18H264.42H263.92H263.42H243.66H243.16H242.66H222.9H222.4H221.9H202.14H201.64H201.14H181.38H180.88H180.38H160.62H160.12H159.62H139.86H139.36H138.86H119.1H118.6H118.1H98.34H97.84H97.34H77.58H77.08H76.58H56.82H56.32H55.82H36.06H35.56H35.06H15.3H14.8H14.3H-5.45998H-5.95998H-6.45998H-26.22H-26.72H-27.22H-46.98H-47.48H-47.98H-67.74H-68.24ZM-27.22 83.1185H-46.98V63.8195H-27.22V83.1185ZM-27.22 62.8195H-46.98V43.0205H-27.22V62.8195ZM-27.22 42.0205H-46.98V22.2215H-27.22V42.0205ZM-27.22 21.2215H-46.98V1.42254H-27.22V21.2215ZM-27.22 0.422539H-46.98V-19.3765H-27.22V0.422539ZM-27.22 -20.3765H-46.98V-40.1755H-27.22V-20.3765ZM-27.22 -41.1755H-46.98V-60.9745H-27.22V-41.1755ZM-27.22 -61.9745H-46.98V-81.2735H-27.22V-61.9745ZM-26.22 -61.9745V-81.2735H-6.45998V-61.9745H-26.22ZM-5.45998 -61.9745V-81.2735H14.3V-61.9745H-5.45998ZM15.3 -61.9745V-81.2735H35.06V-61.9745H15.3ZM36.06 -61.9745V-81.2735H55.82V-61.9745H36.06ZM56.82 -61.9745V-81.2735H76.58V-61.9745H56.82ZM77.58 -61.9745V-81.2735H97.34V-61.9745H77.58ZM98.34 -61.9745V-81.2735H118.1V-61.9745H98.34ZM119.1 -61.9745V-81.2735H138.86V-61.9745H119.1ZM139.86 -61.9745V-81.2735H159.62V-61.9745H139.86ZM160.62 -61.9745V-81.2735H180.38V-61.9745H160.62ZM181.38 -61.9745V-81.2735H201.14V-61.9745H181.38ZM202.14 -61.9745V-81.2735H221.9V-61.9745H202.14ZM222.9 -61.9745V-81.2735H242.66V-61.9745H222.9ZM243.66 -61.9745V-81.2735H263.42V-61.9745H243.66ZM264.42 -61.9745V-81.2735H284.18V-61.9745H264.42ZM285.18 -61.9745V-81.2735H304.94V-61.9745H285.18ZM305.94 -61.9745V-81.2735H325.7V-61.9745H305.94ZM326.7 -61.9745V-81.2735H346.46V-61.9745H326.7ZM347.46 -61.9745V-81.2735H367.22V-61.9745H347.46ZM368.22 -61.9745V-81.2735H387.98V-61.9745H368.22ZM388.98 -61.9745V-81.2735H408.74V-61.9745H388.98ZM409.74 -61.9745V-81.2735H429V-61.9745H409.74ZM409.74 -60.9745H429V-41.1755H409.74V-60.9745ZM409.74 -40.1755H429V-20.3765H409.74V-40.1755ZM409.74 -19.3765H429V0.422539H409.74V-19.3765ZM409.74 1.42254H429V21.2215H409.74V1.42254ZM409.74 22.2215H429V42.0205H409.74V22.2215ZM409.74 43.0205H429V62.8195H409.74V43.0205ZM409.74 63.8195H429V83.1185H409.74V63.8195ZM408.74 63.8195V83.1185H388.98V63.8195H408.74ZM387.98 63.8195V83.1185H368.22V63.8195H387.98ZM367.22 63.8195V83.1185H347.46V63.8195H367.22ZM346.46 63.8195V83.1185H326.7V63.8195H346.46ZM325.7 63.8195V83.1185H305.94V63.8195H325.7ZM304.94 63.8195V83.1185H285.18V63.8195H304.94ZM284.18 63.8195V83.1185H264.42V63.8195H284.18ZM263.42 63.8195V83.1185H243.66V63.8195H263.42ZM242.66 63.8195V83.1185H222.9V63.8195H242.66ZM221.9 63.8195V83.1185H202.14V63.8195H221.9ZM201.14 63.8195V83.1185H181.38V63.8195H201.14ZM180.38 63.8195V83.1185H160.62V63.8195H180.38ZM159.62 63.8195V83.1185H139.86V63.8195H159.62ZM138.86 63.8195V83.1185H119.1V63.8195H138.86ZM118.1 63.8195V83.1185H98.34V63.8195H118.1ZM97.34 63.8195V83.1185H77.58V63.8195H97.34ZM76.58 63.8195V83.1185H56.82V63.8195H76.58ZM55.82 63.8195V83.1185H36.06V63.8195H55.82ZM35.06 63.8195V83.1185H15.3V63.8195H35.06ZM14.3 63.8195V83.1185H-5.45998V63.8195H14.3ZM-6.45998 63.8195V83.1185H-26.22V63.8195H-6.45998ZM-6.45998 62.8195H-26.22V43.0205H-6.45998V62.8195ZM-6.45998 42.0205H-26.22V22.2215H-6.45998V42.0205ZM-6.45998 21.2215H-26.22V1.42254H-6.45998V21.2215ZM-6.45998 0.422539H-26.22V-19.3765H-6.45998V0.422539ZM-6.45998 -20.3765H-26.22V-40.1755H-6.45998V-20.3765ZM-6.45998 -41.1755H-26.22V-60.9745H-6.45998V-41.1755ZM-5.45998 -41.1755V-60.9745H14.3V-41.1755H-5.45998ZM15.3 -41.1755V-60.9745H35.06V-41.1755H15.3ZM36.06 -41.1755V-60.9745H55.82V-41.1755H36.06ZM56.82 -41.1755V-60.9745H76.58V-41.1755H56.82ZM77.58 -41.1755V-60.9745H97.34V-41.1755H77.58ZM98.34 -41.1755V-60.9745H118.1V-41.1755H98.34ZM119.1 -41.1755V-60.9745H138.86V-41.1755H119.1ZM139.86 -41.1755V-60.9745H159.62V-41.1755H139.86ZM160.62 -41.1755V-60.9745H180.38V-41.1755H160.62ZM181.38 -41.1755V-60.9745H201.14V-41.1755H181.38ZM202.14 -41.1755V-60.9745H221.9V-41.1755H202.14ZM222.9 -41.1755V-60.9745H242.66V-41.1755H222.9ZM243.66 -41.1755V-60.9745H263.42V-41.1755H243.66ZM264.42 -41.1755V-60.9745H284.18V-41.1755H264.42ZM285.18 -41.1755V-60.9745H304.94V-41.1755H285.18ZM305.94 -41.1755V-60.9745H325.7V-41.1755H305.94ZM326.7 -41.1755V-60.9745H346.46V-41.1755H326.7ZM347.46 -41.1755V-60.9745H367.22V-41.1755H347.46ZM368.22 -41.1755V-60.9745H387.98V-41.1755H368.22ZM388.98 -41.1755V-60.9745H408.74V-41.1755H388.98ZM388.98 -40.1755H408.74V-20.3765H388.98V-40.1755ZM388.98 -19.3765H408.74V0.422539H388.98V-19.3765ZM388.98 1.42254H408.74V21.2215H388.98V1.42254ZM388.98 22.2215H408.74V42.0205H388.98V22.2215ZM388.98 43.0205H408.74V62.8195H388.98V43.0205ZM387.98 43.0205V62.8195H368.22V43.0205H387.98ZM367.22 43.0205V62.8195H347.46V43.0205H367.22ZM346.46 43.0205V62.8195H326.7V43.0205H346.46ZM325.7 43.0205V62.8195H305.94V43.0205H325.7ZM304.94 43.0205V62.8195H285.18V43.0205H304.94ZM284.18 43.0205V62.8195H264.42V43.0205H284.18ZM263.42 43.0205V62.8195H243.66V43.0205H263.42ZM242.66 43.0205V62.8195H222.9V43.0205H242.66ZM221.9 43.0205V62.8195H202.14V43.0205H221.9ZM201.14 43.0205V62.8195H181.38V43.0205H201.14ZM180.38 43.0205V62.8195H160.62V43.0205H180.38ZM159.62 43.0205V62.8195H139.86V43.0205H159.62ZM138.86 43.0205V62.8195H119.1V43.0205H138.86ZM118.1 43.0205V62.8195H98.34V43.0205H118.1ZM97.34 43.0205V62.8195H77.58V43.0205H97.34ZM76.58 43.0205V62.8195H56.82V43.0205H76.58ZM55.82 43.0205V62.8195H36.06V43.0205H55.82ZM35.06 43.0205V62.8195H15.3V43.0205H35.06ZM14.3 43.0205V62.8195H-5.45998V43.0205H14.3ZM14.3 42.0205H-5.45998V22.2215H14.3V42.0205ZM14.3 21.2215H-5.45998V1.42254H14.3V21.2215ZM14.3 0.422539H-5.45998V-19.3765H14.3V0.422539ZM14.3 -20.3765H-5.45998V-40.1755H14.3V-20.3765ZM15.3 -20.3765V-40.1755H35.06V-20.3765H15.3ZM36.06 -20.3765V-40.1755H55.82V-20.3765H36.06ZM56.82 -20.3765V-40.1755H76.58V-20.3765H56.82ZM77.58 -20.3765V-40.1755H97.34V-20.3765H77.58ZM98.34 -20.3765V-40.1755H118.1V-20.3765H98.34ZM119.1 -20.3765V-40.1755H138.86V-20.3765H119.1ZM139.86 -20.3765V-40.1755H159.62V-20.3765H139.86ZM160.62 -20.3765V-40.1755H180.38V-20.3765H160.62ZM181.38 -20.3765V-40.1755H201.14V-20.3765H181.38ZM202.14 -20.3765V-40.1755H221.9V-20.3765H202.14ZM222.9 -20.3765V-40.1755H242.66V-20.3765H222.9ZM243.66 -20.3765V-40.1755H263.42V-20.3765H243.66ZM264.42 -20.3765V-40.1755H284.18V-20.3765H264.42ZM285.18 -20.3765V-40.1755H304.94V-20.3765H285.18ZM305.94 -20.3765V-40.1755H325.7V-20.3765H305.94ZM326.7 -20.3765V-40.1755H346.46V-20.3765H326.7ZM347.46 -20.3765V-40.1755H367.22V-20.3765H347.46ZM368.22 -20.3765V-40.1755H387.98V-20.3765H368.22ZM368.22 -19.3765H387.98V0.422539H368.22V-19.3765ZM368.22 1.42254H387.98V21.2215H368.22V1.42254ZM368.22 22.2215H387.98V42.0205H368.22V22.2215ZM367.22 22.2215V42.0205H347.46V22.2215H367.22ZM346.46 22.2215V42.0205H326.7V22.2215H346.46ZM325.7 22.2215V42.0205H305.94V22.2215H325.7ZM304.94 22.2215V42.0205H285.18V22.2215H304.94ZM284.18 22.2215V42.0205H264.42V22.2215H284.18ZM263.42 22.2215V42.0205H243.66V22.2215H263.42ZM242.66 22.2215V42.0205H222.9V22.2215H242.66ZM221.9 22.2215V42.0205H202.14V22.2215H221.9ZM201.14 22.2215V42.0205H181.38V22.2215H201.14ZM180.38 22.2215V42.0205H160.62V22.2215H180.38ZM159.62 22.2215V42.0205H139.86V22.2215H159.62ZM138.86 22.2215V42.0205H119.1V22.2215H138.86ZM118.1 22.2215V42.0205H98.34V22.2215H118.1ZM97.34 22.2215V42.0205H77.58V22.2215H97.34ZM76.58 22.2215V42.0205H56.82V22.2215H76.58ZM55.82 22.2215V42.0205H36.06V22.2215H55.82ZM35.06 22.2215V42.0205H15.3V22.2215H35.06ZM35.06 21.2215H15.3V1.42254H35.06V21.2215ZM35.06 0.422539H15.3V-19.3765H35.06V0.422539ZM36.06 0.422539V-19.3765H55.82V0.422539H36.06ZM56.82 0.422539V-19.3765H76.58V0.422539H56.82ZM77.58 0.422539V-19.3765H97.34V0.422539H77.58ZM98.34 0.422539V-19.3765H118.1V0.422539H98.34ZM119.1 0.422539V-19.3765H138.86V0.422539H119.1ZM139.86 0.422539V-19.3765H159.62V0.422539H139.86ZM160.62 0.422539V-19.3765H180.38V0.422539H160.62ZM181.38 0.422539V-19.3765H201.14V0.422539H181.38ZM202.14 0.422539V-19.3765H221.9V0.422539H202.14ZM222.9 0.422539V-19.3765H242.66V0.422539H222.9ZM243.66 0.422539V-19.3765H263.42V0.422539H243.66ZM264.42 0.422539V-19.3765H284.18V0.422539H264.42ZM285.18 0.422539V-19.3765H304.94V0.422539H285.18ZM305.94 0.422539V-19.3765H325.7V0.422539H305.94ZM326.7 0.422539V-19.3765H346.46V0.422539H326.7ZM347.46 0.422539V-19.3765H367.22V0.422539H347.46ZM347.46 1.42254H367.22V21.2215H347.46V1.42254ZM346.46 1.42254V21.2215H326.7V1.42254H346.46ZM325.7 1.42254V21.2215H305.94V1.42254H325.7ZM304.94 1.42254V21.2215H285.18V1.42254H304.94ZM284.18 1.42254V21.2215H264.42V1.42254H284.18ZM263.42 1.42254V21.2215H243.66V1.42254H263.42ZM242.66 1.42254V21.2215H222.9V1.42254H242.66ZM221.9 1.42254V21.2215H202.14V1.42254H221.9ZM201.14 1.42254V21.2215H181.38V1.42254H201.14ZM180.38 1.42254V21.2215H160.62V1.42254H180.38ZM159.62 1.42254V21.2215H139.86V1.42254H159.62ZM138.86 1.42254V21.2215H119.1V1.42254H138.86ZM118.1 1.42254V21.2215H98.34V1.42254H118.1ZM97.34 1.42254V21.2215H77.58V1.42254H97.34ZM76.58 1.42254V21.2215H56.82V1.42254H76.58ZM55.82 1.42254V21.2215H36.06V1.42254H55.82ZM-67.74 249V229.701H-47.98V249H-67.74ZM-68.74 249V229.701H-88V249H-68.74ZM-47.98 228.701H-67.74V208.902H-47.98V228.701ZM-68.74 228.701V208.902H-88V228.701H-68.74ZM-47.98 207.902H-67.74V188.103H-47.98V207.902ZM-68.74 207.902V188.103H-88V207.902H-68.74ZM-47.98 187.103H-67.74V167.304H-47.98V187.103ZM-68.74 187.103V167.304H-88V187.103H-68.74ZM-47.98 166.304H-67.74V146.505H-47.98V166.304ZM-68.74 166.304V146.505H-88V166.304H-68.74ZM-47.98 145.505H-67.74V125.706H-47.98V145.505ZM-68.74 145.505V125.706H-88V145.505H-68.74ZM-47.98 124.706H-67.74V104.907H-47.98V124.706ZM-68.74 124.706V104.907H-88V124.706H-68.74ZM-47.98 103.907H-67.74V84.608H-47.98V103.907ZM-68.74 103.907V84.608H-88V103.907H-68.74ZM-27.22 249H-46.98V229.701H-27.22V249ZM-27.22 228.701H-46.98V208.902H-27.22V228.701ZM-27.22 207.902H-46.98V188.103H-27.22V207.902ZM-27.22 187.103H-46.98V167.304H-27.22V187.103ZM-27.22 166.304H-46.98V146.505H-27.22V166.304ZM-27.22 145.505H-46.98V125.706H-27.22V145.505ZM-27.22 124.706H-46.98V104.907H-27.22V124.706ZM-27.22 103.907H-46.98V84.608H-27.22V103.907ZM-26.22 103.907V84.608H-6.45999V103.907H-26.22ZM-5.45999 103.907V84.608H14.3V103.907H-5.45999ZM15.3 103.907V84.608H35.06V103.907H15.3ZM36.06 103.907V84.608H55.82V103.907H36.06ZM56.82 103.907V84.608H76.58V103.907H56.82ZM77.58 103.907V84.608H97.34V103.907H77.58ZM98.34 103.907V84.608H118.1V103.907H98.34ZM119.1 103.907V84.608H138.86V103.907H119.1ZM139.86 103.907V84.608H159.62V103.907H139.86ZM160.62 103.907V84.608H180.38V103.907H160.62ZM181.38 103.907V84.608H201.14V103.907H181.38ZM202.14 103.907V84.608H221.9V103.907H202.14ZM222.9 103.907V84.608H242.66V103.907H222.9ZM243.66 103.907V84.608H263.42V103.907H243.66ZM264.42 103.907V84.608H284.18V103.907H264.42ZM285.18 103.907V84.608H304.94V103.907H285.18ZM305.94 103.907V84.608H325.7V103.907H305.94ZM326.7 103.907V84.608H346.46V103.907H326.7ZM347.46 103.907V84.608H367.22V103.907H347.46ZM368.22 103.907V84.608H387.98V103.907H368.22ZM388.98 103.907V84.608H408.74V103.907H388.98ZM409.74 103.907V84.608H429V103.907H409.74ZM409.74 104.907H429V124.706H409.74V104.907ZM409.74 125.706H429V145.505H409.74V125.706ZM409.74 146.505H429V166.304H409.74V146.505ZM409.74 167.304H429V187.103H409.74V167.304ZM409.74 188.103H429V207.902H409.74V188.103ZM409.74 208.902H429V228.701H409.74V208.902ZM409.74 229.701H429V249H409.74V229.701ZM408.74 229.701V249H388.98V229.701H408.74ZM387.98 229.701V249H368.22V229.701H387.98ZM367.22 229.701V249H347.46V229.701H367.22ZM346.46 229.701V249H326.7V229.701H346.46ZM325.7 229.701V249H305.94V229.701H325.7ZM304.94 229.701V249H285.18V229.701H304.94ZM284.18 229.701V249H264.42V229.701H284.18ZM263.42 229.701V249H243.66V229.701H263.42ZM242.66 229.701V249H222.9V229.701H242.66ZM221.9 229.701V249H202.14V229.701H221.9ZM201.14 229.701V249H181.38V229.701H201.14ZM180.38 229.701V249H160.62V229.701H180.38ZM159.62 229.701V249H139.86V229.701H159.62ZM138.86 229.701V249H119.1V229.701H138.86ZM118.1 229.701V249H98.34V229.701H118.1ZM97.34 229.701V249H77.58V229.701H97.34ZM76.58 229.701V249H56.82V229.701H76.58ZM55.82 229.701V249H36.06V229.701H55.82ZM35.06 229.701V249H15.3V229.701H35.06ZM14.3 229.701V249H-5.45999V229.701H14.3ZM-6.45999 229.701V249H-26.22V229.701H-6.45999ZM-6.45999 228.701H-26.22V208.902H-6.45999V228.701ZM-6.45999 207.902H-26.22V188.103H-6.45999V207.902ZM-6.45999 187.103H-26.22V167.304H-6.45999V187.103ZM-6.45999 166.304H-26.22V146.505H-6.45999V166.304ZM-6.45999 145.505H-26.22V125.706H-6.45999V145.505ZM-6.45999 124.706H-26.22V104.907H-6.45999V124.706ZM-5.45999 124.706V104.907H14.3V124.706H-5.45999ZM15.3 124.706V104.907H35.06V124.706H15.3ZM36.06 124.706V104.907H55.82V124.706H36.06ZM56.82 124.706V104.907H76.58V124.706H56.82ZM77.58 124.706V104.907H97.34V124.706H77.58ZM98.34 124.706V104.907H118.1V124.706H98.34ZM119.1 124.706V104.907H138.86V124.706H119.1ZM139.86 124.706V104.907H159.62V124.706H139.86ZM160.62 124.706V104.907H180.38V124.706H160.62ZM181.38 124.706V104.907H201.14V124.706H181.38ZM202.14 124.706V104.907H221.9V124.706H202.14ZM222.9 124.706V104.907H242.66V124.706H222.9ZM243.66 124.706V104.907H263.42V124.706H243.66ZM264.42 124.706V104.907H284.18V124.706H264.42ZM285.18 124.706V104.907H304.94V124.706H285.18ZM305.94 124.706V104.907H325.7V124.706H305.94ZM326.7 124.706V104.907H346.46V124.706H326.7ZM347.46 124.706V104.907H367.22V124.706H347.46ZM368.22 124.706V104.907H387.98V124.706H368.22ZM388.98 124.706V104.907H408.74V124.706H388.98ZM388.98 125.706H408.74V145.505H388.98V125.706ZM388.98 146.505H408.74V166.304H388.98V146.505ZM388.98 167.304H408.74V187.103H388.98V167.304ZM388.98 188.103H408.74V207.902H388.98V188.103ZM388.98 208.902H408.74V228.701H388.98V208.902ZM387.98 208.902V228.701H368.22V208.902H387.98ZM367.22 208.902V228.701H347.46V208.902H367.22ZM346.46 208.902V228.701H326.7V208.902H346.46ZM325.7 208.902V228.701H305.94V208.902H325.7ZM304.94 208.902V228.701H285.18V208.902H304.94ZM284.18 208.902V228.701H264.42V208.902H284.18ZM263.42 208.902V228.701H243.66V208.902H263.42ZM242.66 208.902V228.701H222.9V208.902H242.66ZM221.9 208.902V228.701H202.14V208.902H221.9ZM201.14 208.902V228.701H181.38V208.902H201.14ZM180.38 208.902V228.701H160.62V208.902H180.38ZM159.62 208.902V228.701H139.86V208.902H159.62ZM138.86 208.902V228.701H119.1V208.902H138.86ZM118.1 208.902V228.701H98.34V208.902H118.1ZM97.34 208.902V228.701H77.58V208.902H97.34ZM76.58 208.902V228.701H56.82V208.902H76.58ZM55.82 208.902V228.701H36.06V208.902H55.82ZM35.06 208.902V228.701H15.3V208.902H35.06ZM14.3 208.902V228.701H-5.45999V208.902H14.3ZM14.3 207.902H-5.45999V188.103H14.3V207.902ZM14.3 187.103H-5.45999V167.304H14.3V187.103ZM14.3 166.304H-5.45999V146.505H14.3V166.304ZM14.3 145.505H-5.45999V125.706H14.3V145.505ZM15.3 145.505V125.706H35.06V145.505H15.3ZM36.06 145.505V125.706H55.82V145.505H36.06ZM56.82 145.505V125.706H76.58V145.505H56.82ZM77.58 145.505V125.706H97.34V145.505H77.58ZM98.34 145.505V125.706H118.1V145.505H98.34ZM119.1 145.505V125.706H138.86V145.505H119.1ZM139.86 145.505V125.706H159.62V145.505H139.86ZM160.62 145.505V125.706H180.38V145.505H160.62ZM181.38 145.505V125.706H201.14V145.505H181.38ZM202.14 145.505V125.706H221.9V145.505H202.14ZM222.9 145.505V125.706H242.66V145.505H222.9ZM243.66 145.505V125.706H263.42V145.505H243.66ZM264.42 145.505V125.706H284.18V145.505H264.42ZM285.18 145.505V125.706H304.94V145.505H285.18ZM305.94 145.505V125.706H325.7V145.505H305.94ZM326.7 145.505V125.706H346.46V145.505H326.7ZM347.46 145.505V125.706H367.22V145.505H347.46ZM368.22 145.505V125.706H387.98V145.505H368.22ZM368.22 146.505H387.98V166.304H368.22V146.505ZM368.22 167.304H387.98V187.103H368.22V167.304ZM368.22 188.103H387.98V207.902H368.22V188.103ZM367.22 188.103V207.902H347.46V188.103H367.22ZM346.46 188.103V207.902H326.7V188.103H346.46ZM325.7 188.103V207.902H305.94V188.103H325.7ZM304.94 188.103V207.902H285.18V188.103H304.94ZM284.18 188.103V207.902H264.42V188.103H284.18ZM263.42 188.103V207.902H243.66V188.103H263.42ZM242.66 188.103V207.902H222.9V188.103H242.66ZM221.9 188.103V207.902H202.14V188.103H221.9ZM201.14 188.103V207.902H181.38V188.103H201.14ZM180.38 188.103V207.902H160.62V188.103H180.38ZM159.62 188.103V207.902H139.86V188.103H159.62ZM138.86 188.103V207.902H119.1V188.103H138.86ZM118.1 188.103V207.902H98.34V188.103H118.1ZM97.34 188.103V207.902H77.58V188.103H97.34ZM76.58 188.103V207.902H56.82V188.103H76.58ZM55.82 188.103V207.902H36.06V188.103H55.82ZM35.06 188.103V207.902H15.3V188.103H35.06ZM35.06 187.103H15.3V167.304H35.06V187.103ZM35.06 166.304H15.3V146.505H35.06V166.304ZM36.06 166.304V146.505H55.82V166.304H36.06ZM56.82 166.304V146.505H76.58V166.304H56.82ZM77.58 166.304V146.505H97.34V166.304H77.58ZM98.34 166.304V146.505H118.1V166.304H98.34ZM119.1 166.304V146.505H138.86V166.304H119.1ZM139.86 166.304V146.505H159.62V166.304H139.86ZM160.62 166.304V146.505H180.38V166.304H160.62ZM181.38 166.304V146.505H201.14V166.304H181.38ZM202.14 166.304V146.505H221.9V166.304H202.14ZM222.9 166.304V146.505H242.66V166.304H222.9ZM243.66 166.304V146.505H263.42V166.304H243.66ZM264.42 166.304V146.505H284.18V166.304H264.42ZM285.18 166.304V146.505H304.94V166.304H285.18ZM305.94 166.304V146.505H325.7V166.304H305.94ZM326.7 166.304V146.505H346.46V166.304H326.7ZM347.46 166.304V146.505H367.22V166.304H347.46ZM347.46 167.304H367.22V187.103H347.46V167.304ZM346.46 167.304V187.103H326.7V167.304H346.46ZM325.7 167.304V187.103H305.94V167.304H325.7ZM304.94 167.304V187.103H285.18V167.304H304.94ZM284.18 167.304V187.103H264.42V167.304H284.18ZM263.42 167.304V187.103H243.66V167.304H263.42ZM242.66 167.304V187.103H222.9V167.304H242.66ZM221.9 167.304V187.103H202.14V167.304H221.9ZM201.14 167.304V187.103H181.38V167.304H201.14ZM180.38 167.304V187.103H160.62V167.304H180.38ZM159.62 167.304V187.103H139.86V167.304H159.62ZM138.86 167.304V187.103H119.1V167.304H138.86ZM118.1 167.304V187.103H98.34V167.304H118.1ZM97.34 167.304V187.103H77.58V167.304H97.34ZM76.58 167.304V187.103H56.82V167.304H76.58ZM55.82 167.304V187.103H36.06V167.304H55.82Z" fill="url(#paint0_radial_8_21)"/>
<path opacity="0.5" d="M263.874 126.054V188.716" stroke="url(#paint1_linear_8_21)" stroke-width="1.2"/>
<path opacity="0.5" d="M323.629 21.7503L385.654 21.7503" stroke="url(#paint2_linear_8_21)" stroke-width="1.2"/>
<path opacity="0.5" d="M264.021 -19.8901V42.7727" stroke="url(#paint3_linear_8_21)" stroke-width="1.2"/>
<defs>
<radialGradient id="paint0_radial_8_21" cx="0" cy="0" r="1" gradientUnits="userSpaceOnUse" gradientTransform="translate(176.713 82.7351) rotate(89.9809) scale(565.761 410.83)">
<stop stop-color="#313145"/>
<stop offset="1" stop-color="#26203B" stop-opacity="0"/>
</radialGradient>
<linearGradient id="paint1_linear_8_21" x1="264.374" y1="126.054" x2="264.374" y2="188.716" gradientUnits="userSpaceOnUse">
<stop stop-color="#5973FE"/>
<stop offset="1" stop-color="#6966FF" stop-opacity="0"/>
</linearGradient>
<linearGradient id="paint2_linear_8_21" x1="323.629" y1="22.2503" x2="385.654" y2="22.2503" gradientUnits="userSpaceOnUse">
<stop stop-color="#5973FE"/>
<stop offset="1" stop-color="#6966FF" stop-opacity="0"/>
</linearGradient>
<linearGradient id="paint3_linear_8_21" x1="264.521" y1="-19.8901" x2="264.521" y2="42.7727" gradientUnits="userSpaceOnUse">
<stop stop-color="#5973FE"/>
<stop offset="1" stop-color="#6966FF" stop-opacity="0"/>
</linearGradient>
</defs>
</svg>
