<svg width="826" height="400" viewBox="0 0 826 400" fill="none" xmlns="http://www.w3.org/2000/svg">
<path d="M659.289 102.767C659.289 100.147 657.165 98.0236 654.545 98.0236H78.0764C75.6994 98.0226 73.4182 98.96 71.7288 100.632L40.6223 131.447C39.7744 132.285 39.1011 133.284 38.6415 134.384C38.1819 135.484 37.945 136.665 37.9446 137.857V352.909C37.9446 355.301 38.8947 357.595 40.586 359.286C42.2773 360.977 44.5711 361.927 46.963 361.927H671.732C673.663 361.927 675.543 361.307 677.095 360.158L723.082 326.124C724.214 325.285 725.134 324.192 725.768 322.933C726.401 321.674 726.731 320.284 726.731 318.875V174.086C726.731 171.371 724.529 169.17 721.814 169.17C719.098 169.17 716.897 171.371 716.897 174.086V304.407C716.897 307.9 714.066 310.731 710.573 310.731C677.269 310.729 221.812 310.712 188.489 310.694C155.166 310.677 121.842 310.659 88.5386 310.657C85.0461 310.657 82.2147 307.826 82.2146 304.333C82.2128 262.513 82.2134 220.692 82.2139 178.871C82.2142 158.09 82.2145 137.309 82.2145 116.528V113.835C82.2145 110.345 85.0422 107.514 88.5321 107.511C89.6016 107.51 90.5767 107.51 91.2329 107.51H654.545C657.165 107.51 659.289 105.386 659.289 102.767Z" fill="white"/>
<path d="M222.711 218.278L207.829 177.308H179.586L164.642 218.278L143.658 177.308H115.415L149.747 241.856H179.585L193.701 209.716L207.828 241.856H237.654L271.988 177.308H243.745L222.711 218.278Z" fill="white"/>
<path d="M279.307 230.14H311.557L316.622 241.856H344.877L310.339 177.308H280.501L245.984 241.905H274.227L279.307 230.14ZM295.444 195.454L304.25 214.454H286.578L295.444 195.454Z" fill="white"/>
<path d="M384.86 195.552C388.229 195.516 391.588 195.905 394.859 196.709C397.587 197.294 400.015 198.836 401.704 201.057H428.376C425.55 181.254 407.16 176.394 384.86 176.394C360.624 176.394 340.809 182.204 340.907 206.562V211.25C340.809 235.547 360.624 242.989 384.86 243.074C395.821 243.074 407.124 239.993 414.589 232.625L415.807 241.856H428.351V205.746H384.629V216.707H404.834C401.046 221.578 394.725 222.163 384.824 222.163C374.521 222.017 365.813 220.202 365.959 209.631V208.047C365.849 197.61 374.557 195.759 384.86 195.552Z" fill="white"/>
<path d="M547.877 241.856V177.308H516.516L491.379 208.9L466.303 177.308H434.893V241.856H459.982V206.744L485.107 241.856H497.651L522.789 206.744V241.856H547.877Z" fill="white"/>
<path d="M579.457 177.308H554.369L554.369 241.856H579.457L579.457 177.308Z" fill="white"/>
<path d="M636.137 241.856V173.593H600.635V195.125H609.587V241.856H636.137Z" fill="white"/>
<path d="M684.585 241.856V173.593H649.083V195.125H658.035V241.856H684.585Z" fill="white"/>
<path fill-rule="evenodd" clip-rule="evenodd" d="M674.237 110.456C674.521 110.942 674.819 111.413 675.118 111.843C675.166 111.92 675.216 111.992 675.267 112.065L675.268 112.067L675.268 112.067C675.318 112.139 675.368 112.212 675.416 112.287L675.556 112.494L675.557 112.494C675.718 112.732 675.88 112.972 676.047 113.203L676.415 113.702C676.481 113.789 676.546 113.876 676.611 113.963L676.615 113.968C676.747 114.145 676.88 114.322 677.018 114.493L677.428 114.993C677.622 115.235 677.823 115.478 678.024 115.686L678.468 116.179C678.669 116.401 678.87 116.616 679.079 116.831L679.536 117.296C679.744 117.504 679.953 117.705 680.168 117.899C680.202 117.93 680.234 117.959 680.263 117.986C680.311 118.03 680.354 118.07 680.393 118.107L680.399 118.112L680.402 118.114L680.404 118.116C680.487 118.193 680.558 118.259 680.646 118.336L680.682 118.367C680.844 118.508 681.092 118.724 681.291 118.891L681.784 119.3L682.478 119.807L682.977 120.174L682.98 120.176C683.215 120.335 683.45 120.494 683.671 120.646L684.163 120.965C684.36 121.086 684.566 121.202 684.771 121.317L684.933 121.409C684.993 121.443 685.041 121.471 685.082 121.495L685.158 121.539C685.245 121.59 685.301 121.622 685.398 121.673C685.616 121.787 685.837 121.893 686.059 122C686.148 122.044 686.238 122.087 686.328 122.131L686.654 122.283C687.077 122.478 687.507 122.651 687.944 122.811L688.305 122.935C688.396 122.965 688.486 122.995 688.577 123.026C688.803 123.101 689.027 123.176 689.255 123.241C689.359 123.274 689.464 123.3 689.568 123.326C689.637 123.343 689.706 123.36 689.775 123.379L690.594 123.581L691.17 123.691C691.25 123.705 691.33 123.72 691.409 123.734L691.409 123.734C691.611 123.77 691.81 123.805 692.009 123.83L692.314 123.872C692.737 123.92 693.16 123.969 693.591 123.99L695.124 124.073L694.645 123.83C694.581 123.795 694.517 123.76 694.452 123.724C694.173 123.572 693.891 123.418 693.632 123.254L692.675 122.637L692.293 122.394C692.165 122.306 692.04 122.211 691.914 122.116L691.914 122.116L691.911 122.114C691.819 122.045 691.728 121.976 691.634 121.909L691.567 121.861C691.387 121.731 691.277 121.652 691.128 121.534C690.801 121.286 690.478 121.014 690.159 120.746C690.059 120.661 689.958 120.577 689.858 120.494L689.664 120.334C689.186 119.904 688.721 119.46 688.277 118.995C688.19 118.908 688.106 118.818 688.021 118.727L688.019 118.725L687.944 118.645L687.888 118.586C687.569 118.246 687.243 117.892 686.931 117.545C686.83 117.43 686.729 117.309 686.627 117.188L686.626 117.186C686.575 117.125 686.524 117.065 686.473 117.004C686.297 116.794 686.124 116.579 685.952 116.364L685.948 116.359C685.843 116.229 685.738 116.099 685.634 115.971L685.19 115.388C684.906 115.007 684.628 114.618 684.358 114.216C684.309 114.145 684.259 114.074 684.21 114.004L684.209 114.003L684.208 114.002C684.137 113.902 684.066 113.801 683.997 113.695C683.615 113.12 683.241 112.53 682.88 111.92C682.256 110.865 681.673 109.762 681.125 108.625C680.882 108.125 680.653 107.612 680.431 107.098C677.039 99.4402 675.333 90.0337 675.895 79.9267V79.8712C676.588 67.5652 680.605 56.5702 686.522 48.7454C686.869 48.2876 687.216 47.8506 687.576 47.4205L687.791 47.1499L687.947 46.9667L687.948 46.9653C688.247 46.6127 688.54 46.2658 688.86 45.9291L689.033 45.7418C689.178 45.5874 689.326 45.4382 689.474 45.2892L689.475 45.288L689.475 45.288C689.673 45.089 689.869 44.8904 690.06 44.6804L690.24 44.5001C690.439 44.3049 690.64 44.1213 690.843 43.9361L690.843 43.9353C691.022 43.7719 691.203 43.6072 691.385 43.4318L691.627 43.2098C692.425 42.5161 693.244 41.864 694.083 41.2675L694.34 41.0802C694.756 40.7958 695.165 40.5183 695.588 40.2547L695.796 40.1368C696.137 39.9241 696.477 39.7272 696.822 39.5277L696.823 39.5276L696.969 39.4431L697.114 39.3598H697.177C697.593 39.1378 698.016 38.9297 698.439 38.7355L698.55 38.68L698.71 38.6106C699.172 38.4025 699.635 38.2083 700.097 38.0279L698.564 37.9447H696.983L696.116 38.0002L695.54 38.0418C695.338 38.0418 695.14 38.0767 694.94 38.1118C694.858 38.1262 694.776 38.1407 694.693 38.1528L694.173 38.2291C693.914 38.2732 693.656 38.3303 693.4 38.3867L693.4 38.3867L693.202 38.4303L692.814 38.5135C692.37 38.6245 691.919 38.7494 691.482 38.8951L691.142 39.013C690.809 39.124 690.483 39.2419 690.157 39.3668L689.65 39.5818L689.533 39.6311C689.307 39.7259 689.077 39.8222 688.853 39.9287L688.305 40.1992L687.562 40.5807L687.007 40.8998L686.314 41.323L686.312 41.3239C686.125 41.4415 685.939 41.5591 685.759 41.6837L685.065 42.1485L684.517 42.5439L683.823 43.0502L683.282 43.4873C683.06 43.6676 682.845 43.8549 682.63 44.0422L682.63 44.0422L682.11 44.507C681.888 44.7082 681.673 44.9163 681.458 45.1244L680.965 45.603C680.801 45.7677 680.64 45.9401 680.477 46.1144L680.475 46.1165C680.419 46.1764 680.363 46.2366 680.306 46.2967L680.215 46.394L680.156 46.4558C680.036 46.5822 679.963 46.6597 679.856 46.7823L679.772 46.8772L679.769 46.8808L679.767 46.8835C679.602 47.0713 679.346 47.3625 679.162 47.587L678.787 48.024C678.44 48.4448 678.1 48.8749 677.767 49.3143C672.655 56.0708 669.36 64.4783 667.966 73.2742C667.425 76.6645 667.168 80.0939 667.196 83.527C667.196 84.2206 667.196 84.9143 667.244 85.608C667.647 94.4664 669.943 103.172 674.237 110.456ZM704.197 70.8949L704.057 70.9076L704.19 70.8949H704.197ZM702.575 71.0664L702.519 71.0727C702.28 71.0984 702.065 71.1192 701.88 71.1307L702.574 79.3787C703.067 79.344 706.369 79.1151 707.173 79.0873C709.594 78.685 711.946 77.5959 711.994 74.5437C711.433 71.1307 708.117 70.6937 705.286 70.8186L704.468 70.9018L702.435 71.0822L702.519 71.0727C702.658 71.0578 702.805 71.0412 702.959 71.0239L702.962 71.0236L703.292 70.9866C703.036 71.0143 702.796 71.0415 702.575 71.0664L702.575 71.0664ZM786.15 100.467C786.192 100.765 786.192 101.126 786.192 101.459L786.178 102.215V103.991C786.172 104.142 786.16 104.295 786.149 104.449C786.132 104.668 786.115 104.888 786.115 105.108C786.11 105.192 786.102 105.277 786.094 105.362L786.094 105.362L786.094 105.363C786.08 105.507 786.067 105.653 786.067 105.801C786.032 106.21 785.983 106.627 785.935 107.043C785.928 107.111 785.918 107.179 785.909 107.246C785.891 107.377 785.872 107.507 785.872 107.639C785.789 108.243 785.699 108.853 785.588 109.471C785.422 110.567 785.179 111.677 784.894 112.794C782.771 120.754 779.036 128.194 773.92 134.652C770.843 138.619 767.355 142.251 763.515 145.487C761.716 146.998 759.841 148.415 757.896 149.732C756.624 150.597 755.343 151.4 754.053 152.14C749.227 154.969 743.986 157.02 738.521 158.216C737.897 158.341 737.273 158.459 736.648 158.556C736.606 158.564 736.564 158.572 736.522 158.58C736.369 158.61 736.216 158.639 736.059 158.639C735.642 158.702 735.219 158.764 734.803 158.813L734.698 158.826C734.503 158.85 734.304 158.875 734.109 158.875C734.053 158.88 733.997 158.886 733.941 158.892C733.883 158.899 733.824 158.905 733.766 158.912L733.764 158.912L733.762 158.913C733.501 158.942 733.24 158.972 732.986 158.972C732.736 159.007 732.493 159.007 732.25 159.007L731.189 159.049H730.44C730.338 159.049 730.223 159.053 730.106 159.058H730.105C729.862 159.067 729.607 159.077 729.434 159.049C729.277 159.023 729.154 159.021 729.008 159.019H729.008C728.914 159.017 728.812 159.015 728.685 159.007C728.359 158.986 727.956 158.959 727.707 158.938C727.557 158.925 727.435 158.91 727.292 158.893C727.197 158.881 727.092 158.868 726.964 158.854C726.645 158.82 726.333 158.785 726.021 158.737L725.286 158.612L725.189 158.594C724.902 158.542 724.57 158.482 724.377 158.438C724.162 158.39 723.926 158.334 723.683 158.272L722.802 158.057L722.109 157.842C721.824 157.758 721.54 157.668 721.262 157.571L720.569 157.321C720.457 157.279 720.342 157.231 720.228 157.184L720.227 157.183C720.064 157.116 719.901 157.048 719.75 156.995C719.554 156.927 719.382 156.85 719.213 156.774L719.21 156.772L719.209 156.772C719.158 156.749 719.107 156.726 719.056 156.704L718.273 156.329C718.064 156.222 717.901 156.134 717.658 156.002L717.634 155.99C717.463 155.897 717.277 155.789 717.11 155.693L717.11 155.693L716.986 155.621L716.878 155.559L716.778 155.503L716.778 155.503C716.608 155.408 716.448 155.318 716.268 155.185C716.053 155.025 715.768 154.831 715.574 154.699C715.461 154.623 715.367 154.553 715.26 154.474C715.183 154.417 715.1 154.355 714.998 154.283C714.756 154.11 714.492 153.902 714.305 153.749C714.117 153.596 713.93 153.443 713.749 153.284C713.43 153.006 713.111 152.729 712.806 152.431L710.267 150.059L710.385 150.107L710.462 150.149L710.58 150.211L710.781 150.315L710.878 150.371L711.204 150.544L711.565 150.738L711.759 150.842L711.863 150.898L712.078 151.009L712.217 151.071C712.593 151.212 712.981 151.334 713.365 151.456L713.465 151.488L713.604 151.536L714.124 151.689H714.18C714.749 151.855 715.317 151.994 715.893 152.126L716.178 152.195C716.746 152.32 717.322 152.431 717.905 152.528L718.196 152.57C718.793 152.66 719.389 152.743 720 152.806H720.18L720.32 152.818L720.483 152.834C720.993 152.882 721.503 152.93 722.018 152.93H724.335C724.953 152.916 725.563 152.882 726.188 152.833H726.534C727.159 152.778 727.79 152.701 728.421 152.611L728.699 152.57C729.365 152.473 730.044 152.355 730.71 152.216C731.376 152.077 732.049 151.918 732.715 151.751C733.381 151.585 734.033 151.397 734.727 151.196C742.008 148.919 748.802 145.306 754.761 140.541C757.356 138.498 759.81 136.283 762.107 133.909C771.576 124.101 777.507 112.572 779.393 101.819C779.504 101.181 779.595 100.55 779.678 99.9187C779.681 99.9006 779.684 99.8824 779.688 99.8643L779.698 99.8117C779.716 99.7225 779.733 99.6333 779.733 99.5441C779.803 98.9337 779.865 98.3232 779.914 97.7197V97.3798L779.929 97.1755C779.966 96.6665 780.004 96.1534 780.004 95.6456V93.3079C779.983 92.7183 779.948 92.1356 779.9 91.5529V91.3031C779.851 90.7551 779.789 90.214 779.712 89.673V89.444C779.622 88.8752 779.525 88.3133 779.414 87.7584C779.407 87.7271 779.398 87.6962 779.39 87.6657L779.389 87.6628C779.367 87.5796 779.345 87.499 779.345 87.4185C779.22 86.8635 779.088 86.3086 778.942 85.7606C778.933 85.7223 778.923 85.6844 778.911 85.6469C778.904 85.6222 778.896 85.5976 778.887 85.5733C778.79 85.2195 778.686 84.8726 778.568 84.5258L778.526 84.3732C778.501 84.317 778.48 84.259 778.464 84.1998C778.277 83.6587 778.082 83.1176 777.867 82.5904L779.081 83.8321C779.477 84.2275 779.886 84.6576 780.226 85.0461C780.566 85.4345 780.899 85.8369 781.211 86.2531L781.336 86.4265C781.599 86.7872 781.863 87.1549 782.113 87.5295C782.172 87.6231 782.229 87.7194 782.287 87.8167C782.299 87.8373 782.311 87.858 782.324 87.8787C782.348 87.9194 782.372 87.9603 782.397 88.0012C782.577 88.2856 782.751 88.5769 782.917 88.8683L782.943 88.9146C783.032 89.0735 783.089 89.1764 783.216 89.4302C783.272 89.5435 783.337 89.6706 783.4 89.7951C783.492 89.9756 783.581 90.1505 783.639 90.2695C783.692 90.3799 783.731 90.4714 783.775 90.5774L783.776 90.579L783.777 90.5811C783.813 90.6674 783.854 90.7634 783.909 90.8869C784.034 91.1635 784.151 91.4402 784.269 91.7168L784.27 91.7193L784.513 92.3783C784.556 92.5034 784.6 92.6272 784.644 92.7514L784.645 92.7537L784.645 92.7554L784.646 92.7575C784.702 92.9136 784.757 93.0705 784.811 93.2316L785.019 93.9253C785.069 94.0998 785.124 94.2992 785.173 94.4788L785.216 94.6351L785.262 94.7993C785.324 95.0213 785.366 95.1947 785.435 95.493C785.473 95.6547 785.511 95.8448 785.545 96.0183C785.574 96.1648 785.6 96.2995 785.623 96.3948C785.671 96.6029 785.713 96.7833 785.761 97.0885C785.81 97.3937 785.866 97.7614 785.9 98.0111L785.922 98.1674L785.923 98.1692L785.923 98.1725L785.923 98.1742C785.948 98.3484 785.971 98.5077 785.997 98.7533C786.01 98.8714 786.017 98.9994 786.024 99.1259L786.024 99.1269C786.036 99.3418 786.048 99.5536 786.087 99.7106C786.122 99.8502 786.125 99.9767 786.127 100.113C786.129 100.221 786.132 100.335 786.15 100.467ZM731.618 74.8837C732.145 74.6063 732.672 74.3357 733.2 74.0791L733.553 73.9334C733.927 73.7523 734.306 73.581 734.681 73.4113L734.683 73.4107L734.685 73.4098L734.892 73.316L735.239 73.1634L735.732 72.9483L736.786 72.5113L738.042 72.0188L738.895 71.7066L740.185 71.2696L740.997 71.0129C741.448 70.8673 741.912 70.7355 742.384 70.6106C742.476 70.5863 742.567 70.5608 742.657 70.5356C742.798 70.4962 742.938 70.4572 743.078 70.4233C743.771 70.243 744.465 70.0834 745.159 69.9377C747.607 69.4196 750.1 69.1386 752.602 69.0984C753.028 69.0706 753.451 69.0799 753.871 69.0892C754.08 69.0938 754.288 69.0984 754.496 69.0984C756.077 69.1659 757.649 69.3608 759.199 69.6811C759.851 69.8129 760.593 70.0002 761.127 70.1458C761.662 70.2915 762.182 70.4649 762.702 70.6453C764.229 71.1864 765.696 71.8838 767.079 72.7264C768.455 73.5714 769.732 74.5672 770.888 75.6953C770.974 75.7818 771.058 75.8712 771.142 75.9617L771.143 75.9631L771.191 76.0142C771.219 76.0443 771.247 76.0745 771.276 76.1046C771.408 76.2631 771.557 76.4244 771.708 76.5884L771.709 76.5886C771.749 76.6323 771.789 76.6761 771.83 76.7202C771.877 76.7714 771.924 76.8229 771.97 76.8746C777.318 82.9444 779.066 91.7334 777.367 101.396C777.256 102.042 777.131 102.68 776.985 103.332C776.839 103.984 776.659 104.726 776.507 105.295L776.477 105.404L776.477 105.406C776.334 105.939 776.19 106.477 776.021 107.015L776.021 107.016C775.84 107.591 775.66 108.167 775.459 108.75C775.202 109.492 774.925 110.234 774.634 110.976C774.245 111.975 773.829 112.967 773.371 113.959C772.839 115.097 772.263 116.253 771.644 117.428C771.024 118.602 770.36 119.758 769.653 120.896C767.065 125.053 764.042 128.922 760.635 132.439C755.248 138.075 748.907 142.716 741.905 146.146C740.601 146.771 739.304 147.339 738 147.846L737.743 147.939C737.178 148.144 736.617 148.347 736.051 148.54C734.751 148.993 733.461 149.381 732.18 149.705C731.535 149.864 730.82 150.038 730.258 150.149C729.696 150.26 729.128 150.364 728.566 150.454L728.122 150.53C727.636 150.607 727.151 150.669 726.665 150.725H726.429C725.882 150.787 725.341 150.829 724.801 150.87L724.799 150.87H724.383C723.939 150.919 723.495 150.919 723.058 150.919H720.789C720.366 150.898 719.943 150.87 719.527 150.829L719.139 150.794C718.639 150.745 718.133 150.683 717.64 150.607L717.377 150.558C716.977 150.499 716.589 150.422 716.197 150.343L716.197 150.343L716.128 150.329L715.739 150.246C715.254 150.135 714.775 150.017 714.303 149.885H714.206C713.769 149.753 713.332 149.615 712.902 149.462L712.535 149.33C712.118 149.178 711.709 149.018 711.307 148.845L711.175 148.796C710.891 148.671 710.641 148.553 710.343 148.394C710.193 148.314 710.027 148.231 709.857 148.146C709.687 148.061 709.514 147.974 709.351 147.887C709.149 147.776 708.948 147.665 708.754 147.548C708.435 147.363 708.123 147.168 707.818 146.965L707.256 146.59C706.93 146.382 706.617 146.139 706.305 145.897L706.305 145.897L705.847 145.543C705.774 145.482 705.698 145.42 705.622 145.357C705.228 145.034 704.808 144.689 704.529 144.364C704.341 144.144 704.144 143.945 703.949 143.746L703.949 143.746C703.798 143.593 703.648 143.441 703.503 143.281L703.204 142.935C702.982 142.671 702.761 142.4 702.552 142.13L702.24 141.721C702.032 141.443 701.838 141.159 701.644 140.874C701.631 140.855 701.618 140.836 701.605 140.817C701.595 140.802 701.585 140.788 701.575 140.773C701.513 140.681 701.45 140.589 701.394 140.493C701.137 140.09 700.888 139.688 700.659 139.265C700.657 139.251 700.657 139.237 700.659 139.223C700.402 138.793 700.173 138.349 699.965 137.898C699.919 137.806 699.879 137.713 699.838 137.621C699.818 137.575 699.798 137.528 699.778 137.482C699.632 137.163 699.493 136.837 699.361 136.511L699.174 136.018C699.075 135.783 698.985 135.508 698.897 135.239C698.874 135.167 698.851 135.096 698.827 135.026L698.675 134.562C698.543 134.118 698.411 133.667 698.3 133.209C698.284 133.166 698.273 133.122 698.265 133.077C698.141 132.578 698.037 132.071 697.939 131.558C697.931 131.51 697.919 131.461 697.908 131.411C697.882 131.302 697.856 131.189 697.856 131.079C697.794 130.719 697.738 130.351 697.69 129.983C697.686 129.955 697.681 129.927 697.676 129.9C697.674 129.882 697.671 129.864 697.668 129.846C697.644 129.704 697.62 129.561 697.62 129.415C697.608 129.294 697.593 129.179 697.579 129.069C697.546 128.816 697.516 128.581 697.516 128.325C697.468 128.145 697.468 127.965 697.468 127.784C697.412 127.313 697.412 126.841 697.412 126.362V124.482C697.412 124.42 697.407 124.367 697.401 124.314C697.391 124.207 697.38 124.101 697.412 123.921C697.461 123.65 697.461 123.373 697.461 123.095V122.825C697.495 122.381 697.537 121.909 697.593 121.437C697.598 121.376 697.606 121.316 697.615 121.256L697.615 121.255L697.615 121.255C697.628 121.16 697.641 121.066 697.641 120.972L697.704 120.508C697.78 119.904 697.863 119.308 697.974 118.697C698.071 118.137 698.182 117.576 698.307 117.011C698.332 116.893 698.354 116.802 698.378 116.701L698.378 116.7C698.408 116.576 698.442 116.438 698.487 116.221C698.562 115.866 698.659 115.489 698.728 115.22L698.751 115.132C698.781 115.013 698.809 114.914 698.839 114.808L698.841 114.802L698.841 114.801C698.879 114.668 698.919 114.523 698.973 114.313C699.07 113.933 699.194 113.517 699.278 113.24L699.278 113.238C699.315 113.114 699.35 113.009 699.386 112.896C699.431 112.756 699.48 112.606 699.542 112.398C699.641 112.065 699.745 111.765 699.855 111.448L700.187 110.491C700.273 110.241 700.377 109.977 700.468 109.746L700.519 109.615C700.533 109.58 700.547 109.545 700.559 109.512C700.572 109.478 700.585 109.446 700.596 109.416C700.7 109.138 700.777 108.937 700.922 108.576C701.068 108.215 701.262 107.751 701.38 107.48C701.419 107.39 701.458 107.3 701.496 107.21C701.573 107.029 701.651 106.849 701.734 106.669C701.9 106.287 702.081 105.905 702.261 105.531C702.379 105.274 702.497 105.018 702.622 104.761C702.83 104.338 703.045 103.922 703.267 103.498C703.303 103.429 703.338 103.36 703.373 103.29L703.377 103.283C703.449 103.14 703.521 102.997 703.6 102.853C703.736 102.61 703.868 102.369 704 102.127L704.001 102.124L704.003 102.122C704.213 101.737 704.422 101.353 704.647 100.966L704.779 100.744C705.058 100.238 705.371 99.7365 705.688 99.2307L705.778 99.0865C705.901 98.86 706.029 98.6655 706.157 98.4704L706.208 98.3928C706.465 97.9905 706.721 97.5881 706.992 97.1858C707.103 97.0192 707.22 96.8526 707.338 96.6861C707.396 96.6029 707.455 96.5198 707.512 96.4366C707.769 96.069 708.102 95.5973 708.289 95.3337C708.376 95.2117 708.451 95.113 708.532 95.0069C708.626 94.8839 708.727 94.7503 708.865 94.5567C709.122 94.196 709.392 93.8492 709.663 93.5023L710.252 92.7393C710.368 92.603 710.49 92.448 710.609 92.2952C710.776 92.0824 710.94 91.8728 711.085 91.7195C711.221 91.576 711.33 91.4484 711.448 91.312C711.546 91.1981 711.649 91.0777 711.778 90.9357C711.922 90.7778 712.087 90.5869 712.243 90.4046L712.244 90.4039L712.247 90.4009C712.398 90.2245 712.544 90.0555 712.659 89.9298C712.895 89.6732 713.124 89.4234 713.353 89.1668C713.509 89.0021 713.658 88.8429 713.807 88.6839L713.812 88.6787C714.106 88.3639 714.401 88.0498 714.741 87.6961C715.254 87.162 715.774 86.6487 716.301 86.1353L716.44 86.0036L716.849 85.6082C716.95 85.5152 717.053 85.4211 717.156 85.327L717.158 85.3259C717.416 85.0904 717.674 84.8549 717.897 84.637C718.148 84.3913 718.431 84.1457 718.705 83.9073C718.751 83.8677 718.796 83.8284 718.841 83.7893C718.861 83.7712 718.882 83.7532 718.903 83.7352L719.7 83.0138L720.734 82.1605C720.83 82.0833 720.919 82.0099 721.007 81.9371L721.01 81.9348L721.01 81.9347C721.183 81.7928 721.357 81.6493 721.594 81.4668L721.944 81.1982C722.2 81.0016 722.454 80.8073 722.649 80.6552L722.786 80.5474C723.004 80.3763 723.193 80.2281 723.516 80.0032C723.746 79.8428 723.984 79.6702 724.198 79.5143L724.2 79.513L724.202 79.5117C724.348 79.4056 724.483 79.3074 724.598 79.2262C724.693 79.1592 724.787 79.0914 724.882 79.0235C725.072 78.8879 725.261 78.7522 725.451 78.6227L726.582 77.8805C726.667 77.8254 726.751 77.7696 726.836 77.7138L726.838 77.7125C727.01 77.5999 727.181 77.4874 727.352 77.381L727.518 77.277C727.641 77.1989 727.756 77.1241 727.867 77.0516L727.868 77.0515C728.123 76.8858 728.359 76.7329 728.614 76.5833L729.433 76.0838C729.876 75.8273 730.32 75.5846 730.764 75.342L730.765 75.3416L731.229 75.0849L731.618 74.8837ZM688.125 49.9038C687.417 50.8288 686.738 51.8138 686.085 52.8589C682.427 58.8354 679.945 65.4566 678.774 72.3655C677.935 77.0726 677.616 81.8578 677.824 86.6346C677.969 90.1356 678.42 93.6171 679.169 97.0399C679.461 98.3487 679.794 99.6297 680.168 100.883C680.543 102.136 680.957 103.35 681.41 104.525C682.277 106.797 683.331 108.995 684.559 111.094L684.647 111.241C684.97 111.779 685.285 112.306 685.641 112.814L686.016 113.355C686.266 113.725 686.522 114.086 686.786 114.438C686.876 114.56 686.968 114.678 687.06 114.795L687.061 114.796L687.061 114.797C687.125 114.878 687.189 114.959 687.251 115.041C687.494 115.353 687.743 115.659 687.993 115.957C688.243 116.255 688.333 116.359 688.506 116.553C688.68 116.748 689.006 117.108 689.263 117.372C689.356 117.468 689.429 117.544 689.493 117.612L689.494 117.612C689.606 117.73 689.692 117.819 689.811 117.934C689.852 117.974 689.901 118.022 689.955 118.074C690.143 118.255 690.39 118.494 690.594 118.683L691.156 119.196L691.989 119.89L692.551 120.334C692.684 120.435 692.818 120.532 692.951 120.629L692.952 120.629C693.13 120.759 693.309 120.889 693.487 121.028L693.994 121.375C694.479 121.694 694.972 121.992 695.478 122.262C695.52 121.735 695.575 121.208 695.644 120.674V120.521C695.735 119.828 695.839 119.134 695.957 118.44C696.066 117.795 696.176 117.283 696.297 116.718L696.297 116.717L696.324 116.588L696.491 115.894C696.581 115.52 696.671 115.145 696.768 114.771L696.798 114.657C696.879 114.345 696.936 114.121 697.011 113.848L697.261 112.974C697.372 112.606 697.483 112.246 697.601 111.878C697.636 111.763 697.674 111.651 697.712 111.54L697.712 111.538C697.74 111.454 697.768 111.371 697.795 111.288C698.529 109.094 699.39 106.945 700.375 104.851H700.174L699.661 97.9834L697.878 98.1152H697.837L692.426 98.5175L691.323 98.5938L691.774 93.5923L694.375 93.3634L694.965 93.3287C695.313 93.2744 695.63 93.098 695.86 92.8312C696.09 92.5643 696.218 92.2243 696.22 91.872L694.798 73.2881C694.716 72.9571 694.565 72.6474 694.354 72.3793C694.095 72.0966 693.768 71.8846 693.403 71.7633C693.039 71.6419 692.65 71.6152 692.273 71.6856C692.008 71.6639 691.741 71.6639 691.475 71.6856L689.443 71.866H689.27L688.943 67.4472L691.573 67.142L692.474 67.0796H692.62L697.302 66.7258L696.796 59.9623H697.254L700.466 59.7195H700.923L701.416 66.4414L701.985 66.3928L703.594 66.2888H703.587L701.985 66.3928L704.586 66.1639H704.711L704.225 59.4698L707.895 59.1923H708.346L708.859 65.9766C714.221 66.039 718.314 67.6969 719.41 72.2198C720.042 75.7715 718.585 78.1439 716.296 79.5382C717.301 79.8445 718.24 80.335 719.066 80.9848C718.717 81.2742 718.371 81.5672 718.027 81.8637C716.702 82.9995 715.404 84.2037 714.131 85.4762C712.647 83.3188 708.873 83.2078 705.911 83.3951L703.247 83.631L702.762 83.6795L703.525 92.7738L706.126 92.5379C706.397 92.5379 706.72 92.5228 707.082 92.5058C707.37 92.4924 707.682 92.4777 708.013 92.4685C708.332 92.0523 708.665 91.6431 708.998 91.2338L708.998 91.2338C709.137 91.0534 709.282 90.8731 709.428 90.6996C709.713 90.3528 710.004 90.006 710.295 89.666L711.037 88.8128C711.102 88.7401 711.167 88.6668 711.231 88.5935C711.394 88.4079 711.557 88.2218 711.731 88.0428C712.231 87.4879 712.744 86.9329 713.271 86.3918C714.785 84.8034 716.372 83.2924 718.027 81.8637C718.373 81.5671 718.721 81.2752 719.07 80.988L719.066 80.9848C723.767 77.0889 728.985 73.8411 734.581 71.3388C734.056 67.248 733.071 63.2294 731.647 59.3588C731.011 57.6227 730.269 55.927 729.427 54.281C729.066 53.5873 728.692 52.8936 728.303 52.2346C723.538 44.1601 716.691 39.0546 708.943 38.6453H707.5C707.021 38.6453 706.598 38.6453 706.147 38.7146C704.8 38.8074 703.466 39.0351 702.165 39.3945C696.956 40.9414 692.114 44.6249 688.125 49.9038ZM759.803 94.1592L727.674 89.5986C726.815 89.4765 725.45 89.2874 723.881 89.6908C722.418 90.067 721.034 90.8245 719.915 91.8589C718.796 92.8931 717.995 94.1554 717.618 95.4753C717.208 96.9105 717.501 98.1092 717.689 98.8843L717.696 98.9136L725.253 134.635C725.42 135.428 726.071 135.996 726.96 136.125C727.848 136.255 728.84 135.926 729.561 135.262L762.255 105.18C762.265 105.17 762.275 105.161 762.285 105.151C763.349 104.148 764.112 102.931 764.546 101.777C765.003 100.562 765.107 99.3876 764.879 98.2534C764.866 98.1884 764.85 98.1243 764.83 98.0616C764.576 97.2557 764.193 96.1603 763.006 95.3312C762.016 94.6396 760.939 94.3205 759.803 94.1592ZM725.904 94.3075L739.353 96.2167L728.691 124.569L722.893 97.159C722.891 97.1484 722.888 97.1377 722.886 97.1271C722.884 97.1195 722.882 97.1119 722.881 97.1043C722.67 96.2381 722.67 95.9968 722.728 95.7942C722.829 95.4406 723.043 95.1035 723.341 94.8285C723.638 94.5537 724.003 94.3547 724.385 94.2565C724.662 94.1854 725.02 94.1821 725.904 94.3075ZM733.625 125.401L744.334 96.9238L758.032 98.8683C758.638 98.9544 758.988 99.0851 759.297 99.3006C759.371 99.3523 759.418 99.4034 759.47 99.4937C759.53 99.5993 759.593 99.7498 759.685 100.03C759.74 100.38 759.702 100.707 759.565 101.07C759.397 101.518 759.112 101.939 758.822 102.217L733.625 125.401Z" fill="white"/>
</svg>
